<mxfile host="Electron" agent="Mozilla/5.0 (Windows NT 10.0; Win64; x64) AppleWebKit/537.36 (KHTML, like Gecko) draw.io/26.0.4 Chrome/128.0.6613.186 Electron/32.2.5 Safari/537.36" version="26.0.4">
  <diagram name="Page-1" id="3iMmzcl62ppbSr7Xm_OW">
    <mxGraphModel dx="1222" dy="1274" grid="1" gridSize="10" guides="1" tooltips="1" connect="1" arrows="1" fold="1" page="1" pageScale="1" pageWidth="850" pageHeight="1100" math="0" shadow="0">
      <root>
        <mxCell id="0" />
        <mxCell id="1" parent="0" />
        <mxCell id="lTtLDGQLzRc-kAf-tpgz-1" value="People" style="rounded=0;whiteSpace=wrap;html=1;" parent="1" vertex="1">
          <mxGeometry x="180" y="230" width="120" height="60" as="geometry" />
        </mxCell>
        <mxCell id="lTtLDGQLzRc-kAf-tpgz-2" value="&lt;font style=&quot;font-size: 16px;&quot;&gt;&lt;u&gt;ID&lt;/u&gt;&lt;/font&gt;" style="ellipse;whiteSpace=wrap;html=1;" parent="1" vertex="1">
          <mxGeometry x="10" y="120" width="60" height="40" as="geometry" />
        </mxCell>
        <mxCell id="lTtLDGQLzRc-kAf-tpgz-3" value="&lt;font style=&quot;font-size: 16px;&quot;&gt;Name&lt;/font&gt;" style="ellipse;whiteSpace=wrap;html=1;" parent="1" vertex="1">
          <mxGeometry x="90" y="110" width="60" height="40" as="geometry" />
        </mxCell>
        <mxCell id="lTtLDGQLzRc-kAf-tpgz-4" value="&lt;font style=&quot;font-size: 16px;&quot;&gt;Last&lt;/font&gt;" style="ellipse;whiteSpace=wrap;html=1;" parent="1" vertex="1">
          <mxGeometry x="90" y="30" width="60" height="40" as="geometry" />
        </mxCell>
        <mxCell id="lTtLDGQLzRc-kAf-tpgz-5" value="&lt;font style=&quot;font-size: 16px;&quot;&gt;Frist&lt;/font&gt;" style="ellipse;whiteSpace=wrap;html=1;" parent="1" vertex="1">
          <mxGeometry x="15" y="40" width="60" height="40" as="geometry" />
        </mxCell>
        <mxCell id="lTtLDGQLzRc-kAf-tpgz-6" value="&lt;font style=&quot;font-size: 16px;&quot;&gt;gid&lt;/font&gt;" style="ellipse;whiteSpace=wrap;html=1;" parent="1" vertex="1">
          <mxGeometry x="210" y="100" width="60" height="40" as="geometry" />
        </mxCell>
        <mxCell id="lTtLDGQLzRc-kAf-tpgz-7" value="&lt;font style=&quot;font-size: 16px;&quot;&gt;Location&lt;/font&gt;" style="ellipse;whiteSpace=wrap;html=1;" parent="1" vertex="1">
          <mxGeometry x="280" y="110" width="70" height="40" as="geometry" />
        </mxCell>
        <mxCell id="lTtLDGQLzRc-kAf-tpgz-8" value="&lt;font style=&quot;font-size: 16px;&quot;&gt;City&lt;/font&gt;" style="ellipse;whiteSpace=wrap;html=1;" parent="1" vertex="1">
          <mxGeometry x="250" y="20" width="60" height="40" as="geometry" />
        </mxCell>
        <mxCell id="lTtLDGQLzRc-kAf-tpgz-9" value="&lt;font style=&quot;font-size: 16px;&quot;&gt;street&lt;/font&gt;" style="ellipse;whiteSpace=wrap;html=1;" parent="1" vertex="1">
          <mxGeometry x="340" y="20" width="60" height="40" as="geometry" />
        </mxCell>
        <mxCell id="lTtLDGQLzRc-kAf-tpgz-10" value="&lt;span style=&quot;font-size: 16px;&quot;&gt;Child&lt;/span&gt;" style="ellipse;whiteSpace=wrap;html=1;" parent="1" vertex="1">
          <mxGeometry x="440" y="110" width="70" height="40" as="geometry" />
        </mxCell>
        <mxCell id="lTtLDGQLzRc-kAf-tpgz-12" value="&lt;font style=&quot;font-size: 16px;&quot;&gt;Male&lt;/font&gt;" style="ellipse;whiteSpace=wrap;html=1;" parent="1" vertex="1">
          <mxGeometry x="430" y="30" width="60" height="40" as="geometry" />
        </mxCell>
        <mxCell id="lTtLDGQLzRc-kAf-tpgz-13" value="&lt;font style=&quot;font-size: 16px;&quot;&gt;Female&lt;/font&gt;" style="ellipse;whiteSpace=wrap;html=1;" parent="1" vertex="1">
          <mxGeometry x="500" y="30" width="60" height="40" as="geometry" />
        </mxCell>
        <mxCell id="lTtLDGQLzRc-kAf-tpgz-15" value="&lt;font style=&quot;font-size: 16px;&quot;&gt;Notes&lt;/font&gt;" style="ellipse;whiteSpace=wrap;html=1;dashed=1;" parent="1" vertex="1">
          <mxGeometry x="540" y="110" width="70" height="40" as="geometry" />
        </mxCell>
        <mxCell id="lTtLDGQLzRc-kAf-tpgz-16" value="&lt;font style=&quot;font-size: 16px;&quot;&gt;Joindate&lt;/font&gt;" style="ellipse;whiteSpace=wrap;html=1;" parent="1" vertex="1">
          <mxGeometry x="580" y="160" width="70" height="40" as="geometry" />
        </mxCell>
        <mxCell id="lTtLDGQLzRc-kAf-tpgz-17" value="" style="endArrow=none;html=1;rounded=0;" parent="1" source="lTtLDGQLzRc-kAf-tpgz-1" target="lTtLDGQLzRc-kAf-tpgz-2" edge="1">
          <mxGeometry width="50" height="50" relative="1" as="geometry">
            <mxPoint x="180" y="440" as="sourcePoint" />
            <mxPoint x="230" y="390" as="targetPoint" />
          </mxGeometry>
        </mxCell>
        <mxCell id="lTtLDGQLzRc-kAf-tpgz-18" value="" style="endArrow=none;html=1;rounded=0;" parent="1" source="lTtLDGQLzRc-kAf-tpgz-1" target="lTtLDGQLzRc-kAf-tpgz-3" edge="1">
          <mxGeometry width="50" height="50" relative="1" as="geometry">
            <mxPoint x="208" y="240" as="sourcePoint" />
            <mxPoint x="90" y="155" as="targetPoint" />
          </mxGeometry>
        </mxCell>
        <mxCell id="lTtLDGQLzRc-kAf-tpgz-19" value="" style="endArrow=none;html=1;rounded=0;" parent="1" source="lTtLDGQLzRc-kAf-tpgz-1" target="lTtLDGQLzRc-kAf-tpgz-6" edge="1">
          <mxGeometry width="50" height="50" relative="1" as="geometry">
            <mxPoint x="232" y="240" as="sourcePoint" />
            <mxPoint x="181" y="159" as="targetPoint" />
          </mxGeometry>
        </mxCell>
        <mxCell id="lTtLDGQLzRc-kAf-tpgz-20" value="" style="endArrow=none;html=1;rounded=0;" parent="1" source="lTtLDGQLzRc-kAf-tpgz-1" target="lTtLDGQLzRc-kAf-tpgz-7" edge="1">
          <mxGeometry width="50" height="50" relative="1" as="geometry">
            <mxPoint x="252" y="240" as="sourcePoint" />
            <mxPoint x="258" y="160" as="targetPoint" />
          </mxGeometry>
        </mxCell>
        <mxCell id="lTtLDGQLzRc-kAf-tpgz-21" value="" style="endArrow=none;html=1;rounded=0;" parent="1" source="lTtLDGQLzRc-kAf-tpgz-1" target="lTtLDGQLzRc-kAf-tpgz-65" edge="1">
          <mxGeometry width="50" height="50" relative="1" as="geometry">
            <mxPoint x="274" y="240" as="sourcePoint" />
            <mxPoint x="340" y="158" as="targetPoint" />
          </mxGeometry>
        </mxCell>
        <mxCell id="lTtLDGQLzRc-kAf-tpgz-22" value="" style="endArrow=none;html=1;rounded=0;" parent="1" source="lTtLDGQLzRc-kAf-tpgz-1" target="lTtLDGQLzRc-kAf-tpgz-10" edge="1">
          <mxGeometry width="50" height="50" relative="1" as="geometry">
            <mxPoint x="310" y="267" as="sourcePoint" />
            <mxPoint x="390" y="262" as="targetPoint" />
          </mxGeometry>
        </mxCell>
        <mxCell id="lTtLDGQLzRc-kAf-tpgz-24" value="" style="endArrow=none;html=1;rounded=0;" parent="1" source="lTtLDGQLzRc-kAf-tpgz-1" target="lTtLDGQLzRc-kAf-tpgz-15" edge="1">
          <mxGeometry width="50" height="50" relative="1" as="geometry">
            <mxPoint x="310" y="242" as="sourcePoint" />
            <mxPoint x="498" y="153" as="targetPoint" />
          </mxGeometry>
        </mxCell>
        <mxCell id="lTtLDGQLzRc-kAf-tpgz-25" value="" style="endArrow=none;html=1;rounded=0;" parent="1" source="lTtLDGQLzRc-kAf-tpgz-1" target="lTtLDGQLzRc-kAf-tpgz-16" edge="1">
          <mxGeometry width="50" height="50" relative="1" as="geometry">
            <mxPoint x="190" y="270" as="sourcePoint" />
            <mxPoint x="120" y="270" as="targetPoint" />
          </mxGeometry>
        </mxCell>
        <mxCell id="lTtLDGQLzRc-kAf-tpgz-26" value="" style="endArrow=none;html=1;rounded=0;" parent="1" source="lTtLDGQLzRc-kAf-tpgz-3" target="lTtLDGQLzRc-kAf-tpgz-5" edge="1">
          <mxGeometry width="50" height="50" relative="1" as="geometry">
            <mxPoint x="282" y="240" as="sourcePoint" />
            <mxPoint x="231" y="159" as="targetPoint" />
          </mxGeometry>
        </mxCell>
        <mxCell id="lTtLDGQLzRc-kAf-tpgz-27" value="" style="endArrow=none;html=1;rounded=0;" parent="1" source="lTtLDGQLzRc-kAf-tpgz-3" target="lTtLDGQLzRc-kAf-tpgz-4" edge="1">
          <mxGeometry width="50" height="50" relative="1" as="geometry">
            <mxPoint x="207" y="122" as="sourcePoint" />
            <mxPoint x="173" y="78" as="targetPoint" />
          </mxGeometry>
        </mxCell>
        <mxCell id="lTtLDGQLzRc-kAf-tpgz-28" value="" style="endArrow=none;html=1;rounded=0;" parent="1" source="lTtLDGQLzRc-kAf-tpgz-7" target="lTtLDGQLzRc-kAf-tpgz-8" edge="1">
          <mxGeometry width="50" height="50" relative="1" as="geometry">
            <mxPoint x="227" y="121" as="sourcePoint" />
            <mxPoint x="243" y="79" as="targetPoint" />
          </mxGeometry>
        </mxCell>
        <mxCell id="lTtLDGQLzRc-kAf-tpgz-29" value="" style="endArrow=none;html=1;rounded=0;" parent="1" source="lTtLDGQLzRc-kAf-tpgz-7" target="lTtLDGQLzRc-kAf-tpgz-9" edge="1">
          <mxGeometry width="50" height="50" relative="1" as="geometry">
            <mxPoint x="399" y="120" as="sourcePoint" />
            <mxPoint x="386" y="80" as="targetPoint" />
          </mxGeometry>
        </mxCell>
        <mxCell id="lTtLDGQLzRc-kAf-tpgz-30" value="" style="endArrow=none;html=1;rounded=0;" parent="1" source="lTtLDGQLzRc-kAf-tpgz-10" target="lTtLDGQLzRc-kAf-tpgz-12" edge="1">
          <mxGeometry width="50" height="50" relative="1" as="geometry">
            <mxPoint x="420" y="122" as="sourcePoint" />
            <mxPoint x="456" y="78" as="targetPoint" />
          </mxGeometry>
        </mxCell>
        <mxCell id="lTtLDGQLzRc-kAf-tpgz-31" value="" style="endArrow=none;html=1;rounded=0;" parent="1" source="lTtLDGQLzRc-kAf-tpgz-10" target="lTtLDGQLzRc-kAf-tpgz-13" edge="1">
          <mxGeometry width="50" height="50" relative="1" as="geometry">
            <mxPoint x="569" y="120" as="sourcePoint" />
            <mxPoint x="556" y="80" as="targetPoint" />
          </mxGeometry>
        </mxCell>
        <mxCell id="lTtLDGQLzRc-kAf-tpgz-32" value="Assistance" style="rounded=0;whiteSpace=wrap;html=1;" parent="1" vertex="1">
          <mxGeometry x="180" y="590" width="120" height="60" as="geometry" />
        </mxCell>
        <mxCell id="lTtLDGQLzRc-kAf-tpgz-34" value="&lt;font style=&quot;font-size: 16px;&quot;&gt;&lt;u&gt;ID&lt;/u&gt;&lt;/font&gt;" style="ellipse;whiteSpace=wrap;html=1;" parent="1" vertex="1">
          <mxGeometry x="15" y="710" width="60" height="40" as="geometry" />
        </mxCell>
        <mxCell id="lTtLDGQLzRc-kAf-tpgz-35" value="" style="endArrow=none;html=1;rounded=0;" parent="1" source="lTtLDGQLzRc-kAf-tpgz-34" target="lTtLDGQLzRc-kAf-tpgz-32" edge="1">
          <mxGeometry width="50" height="50" relative="1" as="geometry">
            <mxPoint x="80" y="700" as="sourcePoint" />
            <mxPoint x="130" y="650" as="targetPoint" />
          </mxGeometry>
        </mxCell>
        <mxCell id="lTtLDGQLzRc-kAf-tpgz-36" value="&lt;span style=&quot;font-size: 16px;&quot;&gt;People ID&lt;/span&gt;" style="ellipse;whiteSpace=wrap;html=1;" parent="1" vertex="1">
          <mxGeometry x="90" y="720" width="80" height="40" as="geometry" />
        </mxCell>
        <mxCell id="lTtLDGQLzRc-kAf-tpgz-37" value="&lt;span style=&quot;font-size: 16px;&quot;&gt;Helping ID&lt;/span&gt;" style="ellipse;whiteSpace=wrap;html=1;" parent="1" vertex="1">
          <mxGeometry x="190" y="720" width="80" height="40" as="geometry" />
        </mxCell>
        <mxCell id="lTtLDGQLzRc-kAf-tpgz-38" value="&lt;span style=&quot;font-size: 16px;&quot;&gt;Value&lt;/span&gt;" style="ellipse;whiteSpace=wrap;html=1;" parent="1" vertex="1">
          <mxGeometry x="290" y="720" width="80" height="40" as="geometry" />
        </mxCell>
        <mxCell id="lTtLDGQLzRc-kAf-tpgz-39" value="&lt;span style=&quot;font-size: 16px;&quot;&gt;Nptes&lt;/span&gt;" style="ellipse;whiteSpace=wrap;html=1;dashed=1;" parent="1" vertex="1">
          <mxGeometry x="390" y="710" width="80" height="40" as="geometry" />
        </mxCell>
        <mxCell id="lTtLDGQLzRc-kAf-tpgz-40" value="" style="endArrow=none;html=1;rounded=0;" parent="1" source="lTtLDGQLzRc-kAf-tpgz-36" target="lTtLDGQLzRc-kAf-tpgz-32" edge="1">
          <mxGeometry width="50" height="50" relative="1" as="geometry">
            <mxPoint x="102" y="726" as="sourcePoint" />
            <mxPoint x="211" y="660" as="targetPoint" />
          </mxGeometry>
        </mxCell>
        <mxCell id="lTtLDGQLzRc-kAf-tpgz-41" value="" style="endArrow=none;html=1;rounded=0;" parent="1" source="lTtLDGQLzRc-kAf-tpgz-37" target="lTtLDGQLzRc-kAf-tpgz-32" edge="1">
          <mxGeometry width="50" height="50" relative="1" as="geometry">
            <mxPoint x="202" y="721" as="sourcePoint" />
            <mxPoint x="241" y="660" as="targetPoint" />
          </mxGeometry>
        </mxCell>
        <mxCell id="lTtLDGQLzRc-kAf-tpgz-42" value="" style="endArrow=none;html=1;rounded=0;" parent="1" source="lTtLDGQLzRc-kAf-tpgz-38" target="lTtLDGQLzRc-kAf-tpgz-32" edge="1">
          <mxGeometry width="50" height="50" relative="1" as="geometry">
            <mxPoint x="293" y="720" as="sourcePoint" />
            <mxPoint x="271" y="660" as="targetPoint" />
          </mxGeometry>
        </mxCell>
        <mxCell id="lTtLDGQLzRc-kAf-tpgz-43" value="" style="endArrow=none;html=1;rounded=0;" parent="1" source="lTtLDGQLzRc-kAf-tpgz-39" target="lTtLDGQLzRc-kAf-tpgz-32" edge="1">
          <mxGeometry width="50" height="50" relative="1" as="geometry">
            <mxPoint x="387" y="723" as="sourcePoint" />
            <mxPoint x="301" y="660" as="targetPoint" />
          </mxGeometry>
        </mxCell>
        <mxCell id="lTtLDGQLzRc-kAf-tpgz-45" value="HAS" style="rhombus;whiteSpace=wrap;html=1;" parent="1" vertex="1">
          <mxGeometry x="200" y="390" width="80" height="80" as="geometry" />
        </mxCell>
        <mxCell id="lTtLDGQLzRc-kAf-tpgz-46" value="" style="endArrow=none;html=1;rounded=0;" parent="1" source="lTtLDGQLzRc-kAf-tpgz-45" target="lTtLDGQLzRc-kAf-tpgz-1" edge="1">
          <mxGeometry width="50" height="50" relative="1" as="geometry">
            <mxPoint x="270" y="390" as="sourcePoint" />
            <mxPoint x="320" y="340" as="targetPoint" />
          </mxGeometry>
        </mxCell>
        <mxCell id="lTtLDGQLzRc-kAf-tpgz-48" value="&lt;font style=&quot;font-size: 15px;&quot;&gt;M&lt;/font&gt;" style="edgeLabel;html=1;align=center;verticalAlign=middle;resizable=0;points=[];" parent="lTtLDGQLzRc-kAf-tpgz-46" vertex="1" connectable="0">
          <mxGeometry x="0.02" y="-3" relative="1" as="geometry">
            <mxPoint x="-3" as="offset" />
          </mxGeometry>
        </mxCell>
        <mxCell id="lTtLDGQLzRc-kAf-tpgz-47" value="" style="endArrow=none;html=1;rounded=0;" parent="1" source="lTtLDGQLzRc-kAf-tpgz-32" target="lTtLDGQLzRc-kAf-tpgz-45" edge="1">
          <mxGeometry width="50" height="50" relative="1" as="geometry">
            <mxPoint x="10" y="460" as="sourcePoint" />
            <mxPoint x="60" y="410" as="targetPoint" />
          </mxGeometry>
        </mxCell>
        <mxCell id="lTtLDGQLzRc-kAf-tpgz-49" value="&lt;font style=&quot;font-size: 15px;&quot;&gt;M&lt;/font&gt;" style="edgeLabel;html=1;align=center;verticalAlign=middle;resizable=0;points=[];" parent="lTtLDGQLzRc-kAf-tpgz-47" vertex="1" connectable="0">
          <mxGeometry x="0.05" y="3" relative="1" as="geometry">
            <mxPoint x="3" as="offset" />
          </mxGeometry>
        </mxCell>
        <mxCell id="lTtLDGQLzRc-kAf-tpgz-52" value="Type of helping" style="rounded=0;whiteSpace=wrap;html=1;" parent="1" vertex="1">
          <mxGeometry x="520" y="370" width="120" height="60" as="geometry" />
        </mxCell>
        <mxCell id="lTtLDGQLzRc-kAf-tpgz-53" value="&lt;span style=&quot;font-size: 16px;&quot;&gt;Name&lt;/span&gt;" style="ellipse;whiteSpace=wrap;html=1;" parent="1" vertex="1">
          <mxGeometry x="630" y="270" width="80" height="40" as="geometry" />
        </mxCell>
        <mxCell id="lTtLDGQLzRc-kAf-tpgz-54" value="&lt;font style=&quot;font-size: 16px;&quot;&gt;&lt;u&gt;ID&lt;/u&gt;&lt;/font&gt;" style="ellipse;whiteSpace=wrap;html=1;" parent="1" vertex="1">
          <mxGeometry x="470" y="270" width="60" height="40" as="geometry" />
        </mxCell>
        <mxCell id="lTtLDGQLzRc-kAf-tpgz-55" value="" style="endArrow=none;html=1;rounded=0;" parent="1" source="lTtLDGQLzRc-kAf-tpgz-52" target="lTtLDGQLzRc-kAf-tpgz-54" edge="1">
          <mxGeometry width="50" height="50" relative="1" as="geometry">
            <mxPoint x="430" y="470" as="sourcePoint" />
            <mxPoint x="480" y="420" as="targetPoint" />
          </mxGeometry>
        </mxCell>
        <mxCell id="lTtLDGQLzRc-kAf-tpgz-56" value="" style="endArrow=none;html=1;rounded=0;" parent="1" source="lTtLDGQLzRc-kAf-tpgz-52" target="lTtLDGQLzRc-kAf-tpgz-53" edge="1">
          <mxGeometry width="50" height="50" relative="1" as="geometry">
            <mxPoint x="568" y="380" as="sourcePoint" />
            <mxPoint x="523" y="318" as="targetPoint" />
          </mxGeometry>
        </mxCell>
        <mxCell id="lTtLDGQLzRc-kAf-tpgz-57" value="HAS" style="rhombus;whiteSpace=wrap;html=1;" parent="1" vertex="1">
          <mxGeometry x="540" y="580" width="80" height="80" as="geometry" />
        </mxCell>
        <mxCell id="lTtLDGQLzRc-kAf-tpgz-60" value="" style="endArrow=none;html=1;rounded=0;shape=link;" parent="1" source="lTtLDGQLzRc-kAf-tpgz-52" target="lTtLDGQLzRc-kAf-tpgz-57" edge="1">
          <mxGeometry width="50" height="50" relative="1" as="geometry">
            <mxPoint x="568" y="380" as="sourcePoint" />
            <mxPoint x="523" y="318" as="targetPoint" />
          </mxGeometry>
        </mxCell>
        <mxCell id="lTtLDGQLzRc-kAf-tpgz-62" value="&lt;font style=&quot;font-size: 15px;&quot;&gt;M&lt;/font&gt;" style="edgeLabel;html=1;align=center;verticalAlign=middle;resizable=0;points=[];" parent="lTtLDGQLzRc-kAf-tpgz-60" vertex="1" connectable="0">
          <mxGeometry x="-0.2267" y="2" relative="1" as="geometry">
            <mxPoint x="-2" as="offset" />
          </mxGeometry>
        </mxCell>
        <mxCell id="lTtLDGQLzRc-kAf-tpgz-61" value="" style="endArrow=none;html=1;rounded=0;" parent="1" source="lTtLDGQLzRc-kAf-tpgz-57" target="lTtLDGQLzRc-kAf-tpgz-32" edge="1">
          <mxGeometry width="50" height="50" relative="1" as="geometry">
            <mxPoint x="551" y="440" as="sourcePoint" />
            <mxPoint x="483" y="493" as="targetPoint" />
          </mxGeometry>
        </mxCell>
        <mxCell id="lTtLDGQLzRc-kAf-tpgz-64" value="M" style="edgeLabel;html=1;align=center;verticalAlign=middle;resizable=0;points=[];" parent="lTtLDGQLzRc-kAf-tpgz-61" vertex="1" connectable="0">
          <mxGeometry x="-0.0476" relative="1" as="geometry">
            <mxPoint as="offset" />
          </mxGeometry>
        </mxCell>
        <mxCell id="lTtLDGQLzRc-kAf-tpgz-66" value="" style="group;dashed=1;" parent="1" vertex="1" connectable="0">
          <mxGeometry x="360" y="100" width="53.34" height="40" as="geometry" />
        </mxCell>
        <mxCell id="lTtLDGQLzRc-kAf-tpgz-65" value="Status" style="ellipse;whiteSpace=wrap;html=1;strokeColor=default;strokeWidth=2;shadow=0;fillColor=none;dashed=1;" parent="lTtLDGQLzRc-kAf-tpgz-66" vertex="1">
          <mxGeometry width="53.34" height="40" as="geometry" />
        </mxCell>
        <mxCell id="Es9K0jFi-otQ4MoN1-xt-3" value="&lt;span style=&quot;font-size: 16px;&quot;&gt;NickName&lt;/span&gt;" style="ellipse;whiteSpace=wrap;html=1;dashed=1;" vertex="1" parent="1">
          <mxGeometry x="130" y="70" width="90" height="40" as="geometry" />
        </mxCell>
        <mxCell id="Es9K0jFi-otQ4MoN1-xt-4" value="" style="endArrow=none;html=1;rounded=0;" edge="1" parent="1" target="Es9K0jFi-otQ4MoN1-xt-3" source="lTtLDGQLzRc-kAf-tpgz-1">
          <mxGeometry width="50" height="50" relative="1" as="geometry">
            <mxPoint x="170" y="110" as="sourcePoint" />
            <mxPoint x="223" y="78" as="targetPoint" />
          </mxGeometry>
        </mxCell>
      </root>
    </mxGraphModel>
  </diagram>
</mxfile>
